<?xml version="1.0" standalone="no"?>
<!DOCTYPE svg PUBLIC "-//W3C//DTD SVG 20010904//EN"
 "http://www.w3.org/TR/2001/REC-SVG-20010904/DTD/svg10.dtd">
<svg version="1.0" xmlns="http://www.w3.org/2000/svg"
 width="300.000000pt" height="300.000000pt" viewBox="0 0 300.000000 300.000000"
 preserveAspectRatio="xMidYMid meet">
<metadata>
Created by potrace 1.10, written by Peter Selinger 2001-2011
</metadata>
<g transform="translate(0.000000,300.000000) scale(0.050000,-0.050000)"
fill="yellow" stroke="none">
<path d="M4100 4958 c-206 -82 -497 -613 -612 -1121 -26 -114 -68 -187 -68
-119 0 37 -240 339 -502 632 -147 166 -293 334 -324 375 -70 93 -80 93 -120 0
-124 -288 -119 -652 15 -1208 163 -679 175 -768 173 -1305 -1 -482 5 -462
-110 -356 -489 450 -1400 213 -1244 -324 138 -474 960 -685 1317 -337 242 236
379 1185 255 1773 -12 54 -17 102 -12 107 20 19 367 -337 534 -548 154 -195
240 -272 269 -243 5 5 57 108 117 230 60 122 152 297 204 389 53 92 152 274
220 406 l124 239 21 -79 c86 -325 153 -940 137 -1269 -15 -320 -5 -309 -190
-218 -323 160 -555 186 -844 96 -832 -258 -247 -1144 627 -949 371 82 505 286
595 908 102 697 27 1188 -434 2838 -31 111 -50 122 -148 83z"/>
</g>
</svg>
